<svg width="24" height="24" viewBox="0 0 24 24" fill="none" xmlns="http://www.w3.org/2000/svg">
<path d="M20.7008 16.4944C20.1445 15.5366 19.4811 13.7192 19.4811 10.5V9.83475C19.4811 5.68294 16.1505 2.28056 12.0565 2.25019L11.9993 2.25C10.0127 2.25258 8.10855 3.0442 6.70564 4.45072C5.30273 5.85723 4.516 7.76344 4.51851 9.75V10.5C4.51851 13.719 3.85486 15.5363 3.29826 16.494C3.16533 16.7218 3.09479 16.9805 3.09376 17.2443C3.09274 17.508 3.16126 17.7673 3.29243 17.9961C3.42359 18.2249 3.61276 18.415 3.84086 18.5474C4.06896 18.6798 4.32792 18.7496 4.59164 18.75H8.24948C8.24948 19.7446 8.64457 20.6984 9.34783 21.4016C10.0511 22.1049 11.0049 22.5 11.9995 22.5C12.994 22.5 13.9479 22.1049 14.6511 21.4016C15.3544 20.6984 15.7495 19.7446 15.7495 18.75H19.4073C19.671 18.7497 19.9299 18.6798 20.158 18.5475C20.3861 18.4151 20.5753 18.225 20.7064 17.9963C20.8376 17.7675 20.9061 17.5083 20.9052 17.2446C20.9042 16.9809 20.8337 16.7221 20.7008 16.4944ZM11.9995 21C11.403 20.9993 10.831 20.7621 10.4092 20.3403C9.98742 19.9184 9.75015 19.3465 9.74948 18.75H14.2495C14.2488 19.3465 14.0115 19.9184 13.5897 20.3403C13.1679 20.7621 12.596 20.9993 11.9995 21Z" fill="#EBEBF5" fill-opacity="0.6"/>
</svg>
