<svg width="24" height="24" viewBox="0 0 24 24" fill="none" xmlns="http://www.w3.org/2000/svg">
<path d="M7.26703 11.1078C7.05889 10.8962 6.94278 10.611 6.94399 10.3142C6.9452 10.0174 7.06363 9.73313 7.27348 9.52327C7.48334 9.31342 7.76762 9.19498 8.0644 9.19378C8.36118 9.19257 8.64641 9.30868 8.85797 9.51682L10.875 11.5338V3.74707C10.875 3.4487 10.9935 3.16255 11.2045 2.95158C11.4155 2.7406 11.7016 2.62207 12 2.62207C12.2984 2.62207 12.5845 2.7406 12.7955 2.95158C13.0065 3.16255 13.125 3.4487 13.125 3.74707V11.5338L15.142 9.51682C15.3536 9.30868 15.6388 9.19257 15.9356 9.19378C16.2324 9.19498 16.5167 9.31342 16.7265 9.52327C16.9364 9.73313 17.0548 10.0174 17.056 10.3142C17.0572 10.611 16.9411 10.8962 16.733 11.1078L12.7955 15.0453C12.5845 15.2562 12.2984 15.3747 12 15.3747C11.7016 15.3747 11.4155 15.2562 11.2045 15.0453L7.26703 11.1078ZM21 11.6248C20.7016 11.6248 20.4155 11.7433 20.2045 11.9543C19.9935 12.1653 19.875 12.4514 19.875 12.7498V19.1248H4.125V12.7498C4.125 12.4514 4.00647 12.1653 3.7955 11.9543C3.58452 11.7433 3.29837 11.6248 3 11.6248C2.70163 11.6248 2.41548 11.7433 2.2045 11.9543C1.99353 12.1653 1.875 12.4514 1.875 12.7498V19.4998C1.87555 19.9969 2.07327 20.4735 2.42478 20.825C2.77629 21.1765 3.25289 21.3742 3.75 21.3748H20.25C20.7471 21.3742 21.2237 21.1765 21.5752 20.825C21.9267 20.4735 22.1245 19.9969 22.125 19.4998V12.7498C22.125 12.4514 22.0065 12.1653 21.7955 11.9543C21.5845 11.7433 21.2984 11.6248 21 11.6248Z" fill="#EBEBF5" fill-opacity="0.6"/>
</svg>
