<svg width="24" height="24" viewBox="0 0 24 24" fill="none" xmlns="http://www.w3.org/2000/svg">
<path d="M21.8402 13.7835L21.0001 12.523V11.4771L21.8395 10.2181C21.9635 10.0322 22.0453 9.82129 22.0789 9.60034C22.1126 9.37939 22.0974 9.15375 22.0343 8.93933C21.8377 8.29196 21.5787 7.66523 21.2609 7.06798C21.1548 6.87155 21.0065 6.70108 20.8267 6.56885C20.6468 6.43661 20.4399 6.34591 20.2208 6.30326L18.734 6.00598L17.9943 5.2662L17.697 3.77933C17.6543 3.55993 17.5635 3.35274 17.431 3.17275C17.2985 2.99276 17.1277 2.84447 16.9308 2.73861C16.3341 2.42143 15.7081 2.16266 15.0616 1.96592C14.8474 1.90183 14.6216 1.886 14.4005 1.91955C14.1794 1.95311 13.9685 2.03522 13.7829 2.15998L12.5231 3.00008H11.4772L10.2166 2.16008C10.0314 2.03507 9.82074 1.9528 9.59982 1.91922C9.37891 1.88564 9.15329 1.90159 8.9393 1.96592C8.29196 2.16249 7.66526 2.42152 7.06805 2.73936C6.87135 2.84503 6.70066 2.99319 6.56838 3.17308C6.4361 3.35297 6.34556 3.56007 6.30333 3.77933L6.00595 5.2662L5.26626 6.00589L3.77789 6.30326C3.55872 6.34575 3.35176 6.43647 3.172 6.56885C2.99224 6.70123 2.84419 6.87195 2.73858 7.06864C2.42111 7.66557 2.16209 8.2918 1.96514 8.93858C1.90089 9.1527 1.88496 9.37841 1.91852 9.59943C1.95208 9.82046 2.03429 10.0313 2.1592 10.2167L3.00005 11.4771V12.523L2.15845 13.7842C2.0338 13.9696 1.9518 14.1803 1.91838 14.4012C1.88495 14.6221 1.90092 14.8476 1.96514 15.0616C2.16184 15.708 2.42087 16.3337 2.73858 16.93C2.84396 17.1272 2.99201 17.2983 3.17194 17.431C3.35187 17.5637 3.55914 17.6545 3.77864 17.6969L5.26617 17.9942L6.00586 18.734L6.30323 20.2201C6.34499 20.4397 6.43533 20.6472 6.56764 20.8275C6.69996 21.0077 6.8709 21.156 7.06795 21.2616C7.66465 21.5791 8.29089 21.8376 8.9378 22.0335C9.15181 22.0991 9.37784 22.1158 9.59918 22.0824C9.82051 22.0489 10.0315 21.9661 10.2165 21.8402L11.4772 21.0001H12.5231L13.7829 21.8401C14.0328 22.0081 14.3269 22.0983 14.628 22.0995C14.775 22.0993 14.9211 22.0773 15.0616 22.0342C15.708 21.8377 16.3337 21.5789 16.9301 21.2615C17.1273 21.1563 17.2985 21.0083 17.431 20.8284C17.5636 20.6484 17.6542 20.441 17.6962 20.2215L17.9936 18.734L18.734 17.9943L20.2215 17.6969C20.4408 17.654 20.6478 17.5631 20.8276 17.4306C21.0075 17.2981 21.1557 17.1274 21.2616 16.9308C21.579 16.3342 21.8378 15.7082 22.0343 15.0616C22.0974 14.8473 22.1127 14.6218 22.0792 14.401C22.0457 14.1802 21.9641 13.9694 21.8402 13.7835ZM11.9998 16.5002C11.1097 16.5002 10.2397 16.2363 9.4997 15.7418C8.75968 15.2473 8.1829 14.5445 7.84231 13.7222C7.50171 12.9 7.4126 11.9952 7.58623 11.1223C7.75986 10.2493 8.18845 9.44753 8.81778 8.81819C9.44712 8.18885 10.2489 7.76027 11.1219 7.58664C11.9948 7.413 12.8996 7.50212 13.7218 7.84271C14.5441 8.18331 15.2469 8.76008 15.7414 9.5001C16.2358 10.2401 16.4998 11.1102 16.4998 12.0002C16.4998 13.1936 16.0257 14.3382 15.1817 15.1822C14.3378 16.0261 13.1932 16.5002 11.9998 16.5002Z" fill="#EBEBF5" fill-opacity="0.6"/>
</svg>
