<svg width="30" height="30" viewBox="0 0 30 30" fill="none" xmlns="http://www.w3.org/2000/svg">
<path d="M5.66665 9.66666C7.08113 9.66666 8.43769 10.2286 9.43788 11.2288C10.4381 12.229 11 13.5855 11 15C11 16.4145 10.4381 17.771 9.43788 18.7712C8.43769 19.7714 7.08113 20.3333 5.66665 20.3333C4.25216 20.3333 2.8956 19.7714 1.89541 18.7712C0.895216 17.771 0.333313 16.4145 0.333313 15C0.333313 13.5855 0.895216 12.229 1.89541 11.2288C2.8956 10.2286 4.25216 9.66666 5.66665 9.66666ZM15 0.333328C16.4145 0.333328 17.771 0.895231 18.7712 1.89543C19.7714 2.89562 20.3333 4.25217 20.3333 5.66666C20.3333 7.08115 19.7714 8.4377 18.7712 9.4379C17.771 10.4381 16.4145 11 15 11C13.5855 11 12.2289 10.4381 11.2287 9.4379C10.2285 8.4377 9.66665 7.08115 9.66665 5.66666C9.66665 4.25217 10.2285 2.89562 11.2287 1.89543C12.2289 0.895231 13.5855 0.333328 15 0.333328ZM15 19C16.4145 19 17.771 19.5619 18.7712 20.5621C19.7714 21.5623 20.3333 22.9188 20.3333 24.3333C20.3333 25.7478 19.7714 27.1044 18.7712 28.1046C17.771 29.1048 16.4145 29.6667 15 29.6667C13.5855 29.6667 12.2289 29.1048 11.2287 28.1046C10.2285 27.1044 9.66665 25.7478 9.66665 24.3333C9.66665 22.9188 10.2285 21.5623 11.2287 20.5621C12.2289 19.5619 13.5855 19 15 19ZM24.3333 9.66666C25.7478 9.66666 27.1044 10.2286 28.1045 11.2288C29.1047 12.229 29.6666 13.5855 29.6666 15C29.6666 16.4145 29.1047 17.771 28.1045 18.7712C27.1044 19.7714 25.7478 20.3333 24.3333 20.3333C22.9188 20.3333 21.5623 19.7714 20.5621 18.7712C19.5619 17.771 19 16.4145 19 15C19 13.5855 19.5619 12.229 20.5621 11.2288C21.5623 10.2286 22.9188 9.66666 24.3333 9.66666Z" fill="url(#paint0_linear_20_141)"/>
<defs>
<linearGradient id="paint0_linear_20_141" x1="15" y1="0.333328" x2="15" y2="29.6667" gradientUnits="userSpaceOnUse">
<stop stop-color="#125CCF"/>
<stop offset="0.9375" stop-color="#01C7FC"/>
<stop offset="1" stop-color="#74A7FF"/>
</linearGradient>
</defs>
</svg>
