<svg width="24" height="24" viewBox="0 0 24 24" fill="none" xmlns="http://www.w3.org/2000/svg">
<path d="M2.40002 5.59999C2.29401 5.5985 2.18876 5.61808 2.09038 5.65761C1.99201 5.69714 1.90247 5.75583 1.82698 5.83027C1.75148 5.9047 1.69153 5.9934 1.65061 6.09121C1.60969 6.18901 1.58862 6.29397 1.58862 6.39999C1.58862 6.50601 1.60969 6.61098 1.65061 6.70878C1.69153 6.80659 1.75148 6.89529 1.82698 6.96972C1.90247 7.04416 1.99201 7.10285 2.09038 7.14238C2.18876 7.18191 2.29401 7.20149 2.40002 7.19999H21.6C21.706 7.20149 21.8113 7.18191 21.9096 7.14238C22.008 7.10285 22.0976 7.04416 22.1731 6.96972C22.2486 6.89529 22.3085 6.80659 22.3494 6.70878C22.3903 6.61098 22.4114 6.50601 22.4114 6.39999C22.4114 6.29397 22.3903 6.18901 22.3494 6.09121C22.3085 5.9934 22.2486 5.9047 22.1731 5.83027C22.0976 5.75583 22.008 5.69714 21.9096 5.65761C21.8113 5.61808 21.706 5.5985 21.6 5.59999H2.40002ZM2.40002 11.2C2.29401 11.1985 2.18876 11.2181 2.09038 11.2576C1.99201 11.2971 1.90247 11.3558 1.82698 11.4303C1.75148 11.5047 1.69153 11.5934 1.65061 11.6912C1.60969 11.789 1.58862 11.894 1.58862 12C1.58862 12.106 1.60969 12.211 1.65061 12.3088C1.69153 12.4066 1.75148 12.4953 1.82698 12.5697C1.90247 12.6442 1.99201 12.7028 2.09038 12.7424C2.18876 12.7819 2.29401 12.8015 2.40002 12.8H21.6C21.706 12.8015 21.8113 12.7819 21.9096 12.7424C22.008 12.7028 22.0976 12.6442 22.1731 12.5697C22.2486 12.4953 22.3085 12.4066 22.3494 12.3088C22.3903 12.211 22.4114 12.106 22.4114 12C22.4114 11.894 22.3903 11.789 22.3494 11.6912C22.3085 11.5934 22.2486 11.5047 22.1731 11.4303C22.0976 11.3558 22.008 11.2971 21.9096 11.2576C21.8113 11.2181 21.706 11.1985 21.6 11.2H2.40002ZM2.40002 16.8C2.29401 16.7985 2.18876 16.8181 2.09038 16.8576C1.99201 16.8971 1.90247 16.9558 1.82698 17.0303C1.75148 17.1047 1.69153 17.1934 1.65061 17.2912C1.60969 17.389 1.58862 17.494 1.58862 17.6C1.58862 17.706 1.60969 17.811 1.65061 17.9088C1.69153 18.0066 1.75148 18.0953 1.82698 18.1697C1.90247 18.2442 1.99201 18.3028 2.09038 18.3424C2.18876 18.3819 2.29401 18.4015 2.40002 18.4H21.6C21.706 18.4015 21.8113 18.3819 21.9096 18.3424C22.008 18.3028 22.0976 18.2442 22.1731 18.1697C22.2486 18.0953 22.3085 18.0066 22.3494 17.9088C22.3903 17.811 22.4114 17.706 22.4114 17.6C22.4114 17.494 22.3903 17.389 22.3494 17.2912C22.3085 17.1934 22.2486 17.1047 22.1731 17.0303C22.0976 16.9558 22.008 16.8971 21.9096 16.8576C21.8113 16.8181 21.706 16.7985 21.6 16.8H2.40002Z" fill="#EBEBF5" fill-opacity="0.6"/>
</svg>
