<svg width="16" height="16" viewBox="0 0 16 16" fill="none" xmlns="http://www.w3.org/2000/svg">
<path d="M14.3535 13.6465L11.6522 10.9451C12.6062 9.80895 13.0847 8.34842 12.9881 6.86805C12.8915 5.38767 12.2271 4.00174 11.1335 2.99927C10.04 1.99681 8.6016 1.45519 7.11843 1.48738C5.63525 1.51957 4.22175 2.12307 3.1727 3.17203C2.12364 4.22099 1.52001 5.63444 1.4877 7.11761C1.45538 8.60079 1.99687 10.0392 2.99924 11.1328C4.00161 12.2265 5.38748 12.891 6.86784 12.9878C8.34821 13.0845 9.80878 12.6061 10.945 11.6522L13.6464 14.3536C13.7402 14.4474 13.8674 14.5001 14 14.5001C14.1326 14.5001 14.2598 14.4474 14.3535 14.3536C14.4473 14.2599 14.5 14.1327 14.5 14.0001C14.5 13.8675 14.4473 13.7403 14.3535 13.6465ZM2.50036 7.25001C2.50036 6.31055 2.77894 5.39218 3.30088 4.61105C3.82282 3.82992 4.56467 3.2211 5.43261 2.86158C6.30056 2.50206 7.25563 2.408 8.17704 2.59128C9.09845 2.77456 9.94482 3.22695 10.6091 3.89125C11.2734 4.55555 11.7258 5.40192 11.9091 6.32333C12.0924 7.24474 11.9983 8.19981 11.6388 9.06775C11.2793 9.9357 10.6705 10.6776 9.88932 11.1995C9.10819 11.7214 8.18982 12 7.25036 12C5.99102 11.9986 4.78366 11.4977 3.89318 10.6072C3.00269 9.7167 2.50178 8.50935 2.50036 7.25001Z" fill="#EBEBF5" fill-opacity="0.6"/>
</svg>
